<svg version="1.2" baseProfile="tiny-ps" xmlns="http://www.w3.org/2000/svg" width="1024" height="1024"><path fill="#FDFEFE" d="M0 0h1024v1024H0V0Z"/><path fill="#83DBB6" d="M670 308h58v408h-58V545h-88v171H341c2.666-5.332 5.229-10.092 8.563-14.938.889-1.313 1.777-2.626 2.664-3.94l1.383-2.048c2.317-3.457 4.573-6.952 6.827-10.449l1.364-2.111 5.74-8.906c1.527-2.37 3.055-4.739 4.584-7.108l1.435-2.232c3.327-5.155 3.327-5.155 4.44-6.268a108.93 108.93 0 0 1 5.663-.12l3.727-.004 4.126.01h4.316c3.917 0 7.834.006 11.751.013 4.09.006 8.179.006 12.268.008 7.749.003 15.498.011 23.247.021 8.82.011 17.64.017 26.459.022 18.148.01 36.295.028 54.443.05l-.04-3.484c-.303-27.382-.534-54.764-.675-82.148l-.054-10.144-.011-2.04c-.06-10.853-.171-21.704-.3-32.556a3653.755 3653.755 0 0 1-.237-33.488c-.018-6.259-.06-12.516-.163-18.774-.778-49.313-.778-49.313 13.836-64.585 2.443-2.647 4.168-5.54 6.019-8.625L546 396.5a3683.33 3683.33 0 0 0 11.633-18.234c5.973-9.439 12.006-18.832 18.18-28.141l1.834-2.778 1.685-2.527 1.491-2.241L582 341h1v145h87V308Z"/><path fill="#82DCB6" d="M515.898 308.121c1.561.017 3.122.03 4.683.039 4.095.034 8.187.122 12.28.222 4.183.092 8.366.133 12.55.179 8.197.096 16.393.25 24.589.439-.952 1.762-1.907 3.522-2.862 5.283l-1.61 2.971c-1.816 3.264-3.787 6.292-5.903 9.371-4.602 6.777-9.034 13.655-13.438 20.563A2695.19 2695.19 0 0 1 531.5 370c-5.569 8.54-11.066 17.124-16.554 25.716-4.161 6.51-8.35 13-12.571 19.471-5.15 7.898-10.225 15.843-15.28 23.803a2739.109 2739.109 0 0 1-14.75 22.94c-2.368 3.646-4.732 7.295-7.095 10.945l-1.385 2.138a1427.433 1427.433 0 0 0-9.623 15.08C453 492 453 492 452 493c-2.178.094-4.36.117-6.54.114h-2.069c-2.267 0-4.534-.009-6.801-.016a7100 7100 0 0 1-17.108-.029c-4.216-.01-8.432-.015-12.648-.02-8.278-.01-16.556-.028-24.834-.049 2.783-5.103 5.618-10.113 8.82-14.969l2.105-3.202 2.2-3.329 2.294-3.489c1.141-1.737 2.283-3.474 3.426-5.21 2.99-4.544 5.956-9.105 8.905-13.676 3.906-6.049 7.824-12.09 11.75-18.125l6.5-10 1.421-2.187a3311.471 3311.471 0 0 0 18.392-28.667 2068.92 2068.92 0 0 1 10.562-16.459c8.59-13.24 17.088-26.54 25.55-39.863l1.89-2.974c1.165-1.835 2.33-3.67 3.493-5.507l1.606-2.53 1.374-2.168L494 318l.97-2.272c4.497-9.045 12.01-7.889 20.928-7.607Z"/><path fill="#83DBB7" d="M374.298 517.608c2.195.033 4.383.126 6.577.22 1.535.023 3.071.04 4.607.052 4.02.045 8.035.163 12.053.296 4.109.123 8.218.178 12.328.238 8.048.128 16.092.333 24.137.586-1.335 3.428-2.771 6.433-4.766 9.527l-1.675 2.615-1.809 2.795-3.836 5.977-1.98 3.075c-2.953 4.597-5.88 9.21-8.809 13.823-5.7 8.961-11.421 17.907-17.15 26.849-3.26 5.088-6.513 10.18-9.748 15.284-5.477 8.638-10.975 17.249-16.69 25.73-2.859 4.26-5.592 8.586-8.287 12.95-4.506 7.288-9.239 14.413-14.009 21.53a1225.296 1225.296 0 0 0-11.976 18.233A4108.785 4108.785 0 0 1 321.187 696l-1.886 2.896-1.82 2.791-1.597 2.45L314 707l-1.047 2.315c-1.418 2.766-2.609 4.627-4.953 6.685-4.828 1.122-9.451.851-14.375.562-1.308-.04-2.617-.08-3.965-.123-3.224-.105-6.44-.253-9.66-.439-.329-8.094-.575-16.186-.725-24.285-.073-3.764-.17-7.523-.331-11.284-.816-19.536.435-33.355 13.299-49.203 2.762-3.502 5.084-7.262 7.444-11.04.894-1.384 1.79-2.765 2.688-4.145l1.32-2.034L305 612a5455.89 5455.89 0 0 0 20.947-32.555c4.76-7.442 9.562-14.853 14.39-22.25a1226.03 1226.03 0 0 0 12.355-19.403c.89-1.42 1.796-2.829 2.719-4.226 1.665-2.592 1.665-2.592 3.069-5.601 4.038-7.501 7.147-10.232 15.818-10.357Z"/><path fill="#84DBB7" d="M280 308h189c-1.462 3.655-2.532 6.014-4.688 9.113-3.59 5.266-6.952 10.66-10.312 16.075-1.827 2.941-3.654 5.867-5.576 8.748-1.94 3.054-3.326 6.15-4.703 9.493-2.928 6.442-6.064 12.158-11.721 16.571-10.095 3.708-21.536 2.637-32.113 2.23-4.222-.138-8.444-.15-12.668-.176-7.978-.068-15.95-.248-23.925-.47-9.088-.246-18.176-.367-27.266-.477-18.68-.23-37.352-.632-56.028-1.107v-60Z"/></svg>